<svg xmlns="http://www.w3.org/2000/svg" viewBox="0 0 243 165"><style>.a{fill:#F6A02A;}.b{fill:#FFF;}</style><path d="M215 79.8c-8.6 0-16.6-2.9-23-7.8 -6.4 4.9-14.4 7.8-23 7.8 -8.9 0-17-3.1-23.5-8.1 -6.5 5.1-14.6 8.1-23.5 8.1 -8.9 0-17.1-3.1-23.6-8.2 -6.5 5.1-14.7 8.2-23.6 8.2 -8.9 0-17-3.1-23.5-8.1 -6.5 5.1-14.6 8.1-23.5 8.1 -2 0-4-0.2-6-0.5V96h0v56.8c0 6.3 5.7 12 12 12H88.8c6.3 0 10.9-5.7 10.9-12v-20.6 -10.1c6.9 2.2 14.1 3.5 22.8 3.5s17.1-1.3 22.8-3.5v10.1 20.6c0 6.3 5.7 12 12 12H212.2c6.3 0 10.9-5.7 10.9-12V79C220.5 79.5 217.8 79.8 215 79.8z" class="a"/><path d="M76.5 107.8c0-5-4.1-9.1-9.1-9.1H53.2c-5 0-9.1 4.1-9.1 9.1v14.1c0 5 4.1 9.1 9.1 9.1h14.1c5 0 9.1-4.1 9.1-9.1V107.8z" class="b"/><path d="M199.8 107.8c0-5-4.1-9.1-9.1-9.1h-14.1c-5 0-9.1 4.1-9.1 9.1v14.1c0 5 4.1 9.1 9.1 9.1h14.1c5 0 9.1-4.1 9.1-9.1V107.8z" class="b"/><path d="M235.9 36.9C235.9 36.9 235.9 36.9 235.9 36.9L205.8 6.8c-3.9-3.9-11.6-7.1-17.1-7.1H54.3c-5.5 0-13.2 3.2-17.1 7.1L7.1 36.9c0 0 0 0 0 0l-7 7C1 56.4 10.1 66.6 22 69.2v0c0 0 0 0 0.1 0 0.4 0.1 0.9 0.2 1.3 0.3 0 0 0.1 0 0.1 0 0.4 0.1 0.8 0.1 1.3 0.2 0.1 0 0.2 0 0.2 0 0.4 0 0.8 0.1 1.2 0.1 0.1 0 0.2 0 0.3 0 0.5 0 1 0 1.5 0 0.7 0 1.4 0 2-0.1 0.2 0 0.4 0 0.6-0.1 0.5 0 0.9-0.1 1.4-0.2 0.2 0 0.5-0.1 0.7-0.1 0.4-0.1 0.8-0.1 1.2-0.2 0.2-0.1 0.5-0.1 0.7-0.2 0.4-0.1 0.8-0.2 1.2-0.3 0.2-0.1 0.4-0.1 0.6-0.2 0.5-0.2 1-0.3 1.5-0.5 0.1 0 0.2-0.1 0.4-0.1 0.6-0.2 1.2-0.5 1.7-0.8 0.2-0.1 0.4-0.2 0.5-0.3 0.4-0.2 0.8-0.4 1.1-0.6 0.2-0.1 0.4-0.3 0.7-0.4 0.3-0.2 0.6-0.4 0.9-0.6 0.1-0.1 0.2-0.1 0.3-0.2h0c3.1-2.1 5.7-4.8 7.7-7.9 5 7.7 13.6 12.7 23.5 12.7 9.9 0 18.6-5.1 23.6-12.9 2 3.2 4.7 5.9 7.8 8.1h0c0.5 0.4 1.1 0.7 1.6 1 0.1 0.1 0.2 0.1 0.3 0.2 1.1 0.6 2.2 1.2 3.4 1.6 0.1 0 0.2 0.1 0.3 0.1 0.6 0.2 1.2 0.4 1.8 0.6 0 0 0 0 0 0 0.6 0.2 1.2 0.3 1.8 0.5 0.1 0 0.3 0.1 0.4 0.1 0.6 0.1 1.2 0.3 1.8 0.4 0 0 0 0 0 0 0.6 0.1 1.3 0.2 1.9 0.2 0.2 0 0.3 0 0.5 0 0.6 0 1.3 0.1 1.9 0.1s1.3 0 1.9-0.1c0.2 0 0.3 0 0.5 0 0.6-0.1 1.3-0.1 1.9-0.2 0 0 0 0 0 0 0.6-0.1 1.2-0.2 1.8-0.4 0.1 0 0.3-0.1 0.4-0.1 0.6-0.1 1.2-0.3 1.8-0.5 0 0 0 0 0 0 0.6-0.2 1.2-0.4 1.8-0.6 0.1 0 0.2-0.1 0.3-0.1 1.2-0.5 2.3-1 3.4-1.6 0.1-0.1 0.2-0.1 0.3-0.2 0.5-0.3 1.1-0.7 1.6-1h0c3.1-2.1 5.7-4.8 7.7-7.9 5 7.7 13.6 12.7 23.5 12.7 9.5 0 18-4.8 23-12.1 2 2.8 4.4 5.3 7.3 7.2h0c0.5 0.4 1.1 0.7 1.6 1 0.1 0.1 0.2 0.1 0.3 0.2 1.1 0.6 2.2 1.2 3.4 1.6 0.1 0 0.2 0.1 0.3 0.1 0.6 0.2 1.2 0.4 1.8 0.6 0 0 0 0 0 0 0.6 0.2 1.2 0.3 1.8 0.5 0.1 0 0.3 0.1 0.4 0.1 0.6 0.1 1.2 0.3 1.8 0.4 0 0 0 0 0 0 0.6 0.1 1.3 0.2 1.9 0.2 0.2 0 0.3 0 0.5 0 0.6 0 1.3 0.1 1.9 0.1 0.6 0 1.2 0 1.9-0.1 0.1 0 0.3 0 0.4 0 0.6 0 1.2-0.1 1.7-0.2 0 0 0 0 0.1 0 0.6-0.1 1.3-0.2 1.9-0.4 0 0 0.1 0 0.1 0 11.9-2.7 20.9-12.8 21.8-25.3L235.9 36.9z" class="a"/><path d="M73.8 7l-15 37c0.1 8.8 7.2 15.9 16.1 15.9 8.8 0 16-7.1 16.1-15.9H91l7.8-37H73.8z" class="b"/><path d="M169.8 7l15 37c-0.1 8.8-7.2 15.9-16.1 15.9 -8.8 0-16-7.1-16.1-15.9h0l-7.8-37H169.8z" class="b"/></svg>